<svg width="512" height="512" xmlns="http://www.w3.org/2000/svg">

 <g>
  <title>background</title>
  <rect fill="none" id="canvas_background" height="402" width="582" y="-1" x="-1"/>
 </g>
 <g>
  <title>Layer 1</title>
  <path id="svg_2" fill-rule="evenodd" fill="#697882" d="m256.23,512c140.58,0 255.77,-115.19 255.77,-255.77c0,-141.046 -115.19,-256.23 -255.77,-256.23c-141.046,0 -256.23,115.184 -256.23,256.23c0,140.58 115.184,255.77 256.23,255.77l0,0z" clip-rule="evenodd"/>
  <path id="svg_3" fill-rule="evenodd" fill="#FFFFFF" d="m276.635,137.407c-9.077,6.351 -15.873,15.42 -20.865,25.396l-2.265,5.898c-1.359,4.077 -2.273,8.163 -2.726,12.241c-0.453,2.265 -0.453,4.085 -0.906,5.898l0,3.625l0.453,5.898l0.906,7.71l-0.453,0l-2.719,0l-1.813,0c-22.224,-0.453 -43.987,-5.445 -63.04,-14.061l-11.334,-5.437c-2.265,-0.914 -4.078,-2.273 -6.351,-3.632c-12.694,-7.257 -24.028,-16.78 -34.012,-27.208c-6.343,-6.804 -12.241,-14.061 -17.232,-21.771c-5.438,10.437 -8.616,22.677 -8.616,35.379c0,4.531 0.453,9.069 1.359,13.6c0,2.265 0.453,4.085 0.914,5.898c4.078,13.6 11.334,25.849 21.31,34.918l4.992,4.539l-6.351,-1.367c-8.163,-2.266 -16.326,-4.984 -24.036,-8.164c0.906,16.327 7.257,31.293 17.232,43.089c9.522,11.327 22.224,19.951 36.73,24.028l-16.779,0.906l-14.054,-0.453c10.429,25.403 34.465,43.995 63.033,46.261c-26.302,19.498 -58.955,30.388 -93.873,30.388c25.849,15.873 55.33,25.841 87.521,27.653l20.865,0c99.31,-5.438 177.77,-87.522 177.77,-188.199l0,-9.522c3.625,-3.171 7.25,-6.343 10.89,-9.975c8.608,-7.71 16.326,-16.78 22.67,-26.302c-10.437,6.804 -22.67,10.429 -36.277,10.429l-0.453,0l-0.453,0l0.453,0c12.232,-8.163 21.763,-20.404 26.747,-34.465c-9.515,4.992 -20.404,8.616 -31.294,11.796l-1.359,0.453l-8.155,1.812c-11.795,-12.702 -28.575,-20.865 -47.167,-20.865l-0.452,0l-0.906,0c-4.984,0 -9.983,0.453 -14.968,1.367c-7.249,1.812 -14.514,4.984 -20.404,8.616l-4.532,3.623z" clip-rule="evenodd"/>
 </g>
</svg>